<?xml version="1.0" standalone="no"?>
<!DOCTYPE svg PUBLIC "-//W3C//DTD SVG 20010904//EN"
 "http://www.w3.org/TR/2001/REC-SVG-20010904/DTD/svg10.dtd">
<svg version="1.0" xmlns="http://www.w3.org/2000/svg"
 width="16.000000pt" height="16.000000pt" viewBox="0 0 16.000000 16.000000"
 preserveAspectRatio="xMidYMid meet">
<metadata>
Created by potrace 1.11, written by Peter Selinger 2001-2013
</metadata>
<g transform="translate(0.000000,16.000000) scale(0.003107,-0.003107)"
fill="#000000" stroke="none">
<path d="M205 5086 c-60 -28 -127 -99 -143 -154 -9 -30 -12 -610 -12 -2363 0
-2245 1 -2325 19 -2365 24 -53 83 -112 135 -134 39 -17 170 -18 2371 -21
l2330 -4 57 28 c62 30 113 85 134 145 11 30 13 469 13 2362 l1 2325 -24 50
c-28 60 -99 127 -154 143 -30 9 -610 12 -2358 12 l-2319 0 -50 -24z m3375
-1341 l0 -335 -335 0 -335 0 0 -873 c0 -833 -1 -877 -19 -950 -59 -228 -221
-400 -446 -474 -103 -34 -275 -38 -370 -9 -224 68 -389 225 -459 436 -103 313
42 658 338 804 175 86 395 89 569 7 l57 -27 0 878 0 878 500 0 500 0 0 -335z"/>
</g>
</svg>
